<svg xmlns="http://www.w3.org/2000/svg" xmlns:xlink="http://www.w3.org/1999/xlink" width="48" zoomAndPan="magnify" viewBox="0 0 36 36.000001" height="48" preserveAspectRatio="xMidYMid meet" version="1.2"><defs><clipPath id="5bd219fca1"><path d="M 0.488281 0 L 22.234375 0 L 22.234375 22.039062 L 0.488281 22.039062 Z M 0.488281 0 "/></clipPath><clipPath id="80c98f5ac9"><path d="M 0.488281 0 L 22.234375 0 L 22.234375 22 L 0.488281 22 Z M 0.488281 0 "/></clipPath><clipPath id="17d2d9f894"><rect x="0" width="23" y="0" height="23"/></clipPath><clipPath id="b264cf1853"><path d="M 0.488281 0 L 22.226562 0 L 22.226562 21.890625 L 0.488281 21.890625 Z M 0.488281 0 "/></clipPath><clipPath id="1e40bdb915"><path d="M 13.765625 13.28125 L 35.511719 13.28125 L 35.511719 35.027344 L 13.765625 35.027344 Z M 13.765625 13.28125 "/></clipPath><clipPath id="a87a4497d6"><path d="M 0.765625 0.28125 L 22.511719 0.28125 L 22.511719 22.027344 L 0.765625 22.027344 Z M 0.765625 0.28125 "/></clipPath><clipPath id="9483d20578"><rect x="0" width="23" y="0" height="23"/></clipPath><clipPath id="cd534246b9"><path d="M 13.765625 13.28125 L 35.511719 13.28125 L 35.511719 35.023438 L 13.765625 35.023438 Z M 13.765625 13.28125 "/></clipPath></defs><g id="6f613d9693"><g clip-rule="nonzero" clip-path="url(#5bd219fca1)"><g transform="matrix(1,0,0,1,0.000000000000000056,0.000000000000010582)"><g clip-path="url(#17d2d9f894)"><g clip-rule="nonzero" clip-path="url(#80c98f5ac9)"><path style=" stroke:none;fill-rule:nonzero;fill:#b4a03b;fill-opacity:1;" d="M 0.488281 0 L 22.234375 0 L 22.234375 22 L 0.488281 22 Z M 0.488281 0 "/></g></g></g></g><g clip-rule="nonzero" clip-path="url(#b264cf1853)"><path style="fill:none;stroke-width:2;stroke-linecap:butt;stroke-linejoin:miter;stroke:#3a393c;stroke-opacity:1;stroke-miterlimit:4;" d="M -0.0021455 -0.00000266667 L 29.78735 -0.00000266667 L 29.78735 30.185615 L -0.0021455 30.185615 Z M -0.0021455 -0.00000266667 " transform="matrix(0.72973,0,0,0.72973,0.489847,0.00000194595)"/></g><g style="fill:#ffffff;fill-opacity:1;"><g transform="translate(8.114442, 13.135137)"><path style="stroke:none" d="M 4.84375 -6.796875 C 5.1875 -6.648438 5.472656 -6.414062 5.703125 -6.09375 C 5.929688 -5.769531 6.046875 -5.347656 6.046875 -4.828125 C 6.046875 -4.316406 5.929688 -3.894531 5.703125 -3.5625 C 5.484375 -3.226562 5.203125 -2.992188 4.859375 -2.859375 C 4.503906 -2.703125 3.945312 -2.625 3.1875 -2.625 L 2.109375 -2.625 L 2.109375 0 L 0.703125 0 L 0.703125 -6.96875 L 3.140625 -6.96875 C 3.585938 -6.96875 3.941406 -6.957031 4.203125 -6.9375 C 4.472656 -6.914062 4.6875 -6.867188 4.84375 -6.796875 Z M 4.59375 -4.8125 C 4.59375 -5.226562 4.390625 -5.519531 3.984375 -5.6875 C 3.828125 -5.757812 3.507812 -5.796875 3.03125 -5.796875 L 2.109375 -5.796875 L 2.109375 -3.8125 L 3.03125 -3.8125 C 3.507812 -3.8125 3.890625 -3.875 4.171875 -4 C 4.453125 -4.132812 4.59375 -4.40625 4.59375 -4.8125 Z M 4.59375 -4.8125 "/></g></g><g clip-rule="nonzero" clip-path="url(#1e40bdb915)"><g transform="matrix(1,0,0,1,13,13)"><g clip-path="url(#9483d20578)"><g clip-rule="nonzero" clip-path="url(#a87a4497d6)"><path style=" stroke:none;fill-rule:nonzero;fill:#518d53;fill-opacity:1;" d="M 0.765625 0.28125 L 22.511719 0.28125 L 22.511719 22.027344 L 0.765625 22.027344 Z M 0.765625 0.28125 "/></g></g></g></g><g clip-rule="nonzero" clip-path="url(#cd534246b9)"><path style="fill:none;stroke-width:2;stroke-linecap:butt;stroke-linejoin:miter;stroke:#3a393c;stroke-opacity:1;stroke-miterlimit:4;" d="M -0.0026624 0.000227788 L 29.797541 0.000227788 L 29.797541 29.795078 L -0.0026624 29.795078 Z M -0.0026624 0.000227788 " transform="matrix(0.72973,0,0,0.72973,13.767568,13.281084)"/></g><g style="fill:#ffffff;fill-opacity:1;"><g transform="translate(20.038683, 26.416219)"><path style="stroke:none" d="M 2.53125 -2.1875 L 3.796875 -6.96875 L 5.46875 -6.96875 L 6.703125 -2.109375 L 7.765625 -6.96875 L 9.171875 -6.96875 L 7.484375 0 L 5.984375 0 L 4.59375 -5.203125 L 3.21875 0 L 1.6875 0 L 0.03125 -6.96875 L 1.46875 -6.96875 Z M 2.53125 -2.1875 "/></g></g></g></svg>